Coordinates
version=1
nRows=42
nColumns=11
inDegrees=yes

Units are S.I. units (second, meters, Newtons, ...)
If the header above contains a line with 'inDegrees', this indicates whether rotational values are in degrees (yes) or radians (no).

endheader
time	pelvis_tilt	pelvis_tx	pelvis_ty	hip_flexion_l	hip_flexion_r	knee_angle_l	knee_angle_r	ankle_angle_l	ankle_angle_r	lumbar
      8.10000000	     16.09754934	     -0.04227121	      0.73231023	     57.34122195	     57.34122195	    -79.46977564	    -79.46977564	      4.11856161	      4.11856161	    -29.88147524
      8.11000000	     16.08956932	     -0.04218175	      0.73232138	     57.34076424	     57.34076424	    -79.47060359	    -79.47060359	      4.11859235	      4.11859235	    -29.88674799
      8.12000000	     16.08199061	     -0.04210489	      0.73234303	     57.34247426	     57.34247426	    -79.47094946	    -79.47094946	      4.11882163	      4.11882163	    -29.89498257
      8.13000000	     16.07326611	     -0.04202906	      0.73236093	     57.34399483	     57.34399483	    -79.47132548	    -79.47132548	      4.11909811	      4.11909811	    -29.90350112
      8.14000000	     16.06376651	     -0.04197603	      0.73237545	     57.34937245	     57.34937245	    -79.47062585	    -79.47062585	      4.11985302	      4.11985302	    -29.91789447
      8.15000000	     16.05443552	     -0.04192417	      0.73238942	     57.35414131	     57.35414131	    -79.46989512	    -79.46989512	      4.12068051	      4.12068051	    -29.93039018
      8.16000000	     16.04456538	     -0.04187396	      0.73240264	     57.35924685	     57.35924685	    -79.46893890	    -79.46893890	      4.12166107	      4.12166107	    -29.94314842
      8.17000000	     16.03421840	     -0.04182897	      0.73241351	     57.36529502	     57.36529502	    -79.46764127	    -79.46764127	      4.12286840	      4.12286840	    -29.95698512
      8.18000000	     16.02361808	     -0.04178928	      0.73242105	     57.37219559	     57.37219559	    -79.46613401	    -79.46613401	      4.12429435	      4.12429435	    -29.97159495
      8.19000000	     16.01285798	     -0.04175377	      0.73242512	     57.37979269	     57.37979269	    -79.46460115	    -79.46460115	      4.12590886	      4.12590886	    -29.98675941
      8.20000000	     16.00096574	     -0.04175818	      0.73242130	     57.39471137	     57.39471137	    -79.46167328	    -79.46167328	      4.12920624	      4.12920624	    -30.00813202
      8.21000000	     15.99113355	     -0.04169922	      0.73242147	     57.39726851	     57.39726851	    -79.46202148	    -79.46202148	      4.13015233	      4.13015233	    -30.01585724
      8.22000000	     15.97800779	     -0.04170530	      0.73241493	     57.41423389	     57.41423389	    -79.45994246	    -79.45994246	      4.13372244	      4.13372244	    -30.04115242
      8.23000000	     15.96731993	     -0.04165223	      0.73241255	     57.41806413	     57.41806413	    -79.46041778	    -79.46041778	      4.13487347	      4.13487347	    -30.05109477
      8.24000000	     15.95424178	     -0.04166630	      0.73240893	     57.43584083	     57.43584083	    -79.45853602	    -79.45853602	      4.13817918	      4.13817918	    -30.07986164
      8.25000000	     15.94175468	     -0.04162542	      0.73240395	     57.44232628	     57.44232628	    -79.45862746	    -79.45862746	      4.13969811	      4.13969811	    -30.09487046
      8.26000000	     15.92646561	     -0.04167633	      0.73238248	     57.46791782	     57.46791782	    -79.45560265	    -79.45560265	      4.14507870	      4.14507870	    -30.13002073
      8.27000000	     15.91181931	     -0.04162798	      0.73239547	     57.47319059	     57.47319059	    -79.45555630	    -79.45555630	      4.14645976	      4.14645976	    -30.14532904
      8.28000000	     15.89457798	     -0.04169387	      0.73238469	     57.49907342	     57.49907342	    -79.44921843	    -79.44921843	      4.15133064	      4.15133064	    -30.18784478
      8.29000000	     15.87444211	     -0.04171156	      0.73238448	     57.51850350	     57.51850350	    -79.44364944	    -79.44364944	      4.15629569	      4.15629569	    -30.21941549
      8.30000000	     15.85332624	     -0.04174275	      0.73238983	     57.53929691	     57.53929691	    -79.43623551	    -79.43623551	      4.16086459	      4.16086459	    -30.25813407
      8.31000000	     15.83077248	     -0.04178240	      0.73240411	     57.55951660	     57.55951660	    -79.42798792	    -79.42798792	      4.16480286	      4.16480286	    -30.30086556
      8.32000000	     15.80590839	     -0.04183255	      0.73241523	     57.58268079	     57.58268079	    -79.41723469	    -79.41723469	      4.16898573	      4.16898573	    -30.35123037
      8.33000000	     15.77878226	     -0.04189149	      0.73243181	     57.60708546	     57.60708546	    -79.40545427	    -79.40545427	      4.17290434	      4.17290434	    -30.40747893
      8.34000000	     15.74886437	     -0.04196220	      0.73244477	     57.63474656	     57.63474656	    -79.39150835	    -79.39150835	      4.17696410	      4.17696410	    -30.47212987
      8.35000000	     15.71592104	     -0.04204128	      0.73245736	     57.66516734	     57.66516734	    -79.37602145	    -79.37602145	      4.18103574	      4.18103574	    -30.54455860
      8.36000000	     15.67962986	     -0.04212728	      0.73246608	     57.69911949	     57.69911949	    -79.35867418	    -79.35867418	      4.18523258	      4.18523258	    -30.62594292
      8.37000000	     15.63981491	     -0.04221464	      0.73247234	     57.73636992	     57.73636992	    -79.33991743	    -79.33991743	      4.18951679	      4.18951679	    -30.71614378
      8.38000000	     15.59637934	     -0.04229863	      0.73247611	     57.77697501	     57.77697501	    -79.32012997	    -79.32012997	      4.19390515	      4.19390515	    -30.81566745
      8.39000000	     15.54917998	     -0.04237789	      0.73248654	     57.81879818	     57.81879818	    -79.30088715	    -79.30088715	      4.19825638	      4.19825638	    -30.92157419
      8.40000000	     15.49821356	     -0.04244891	      0.73249081	     57.86533910	     57.86533910	    -79.28071061	    -79.28071061	      4.20299624	      4.20299624	    -31.04041630
      8.41000000	     15.44343308	     -0.04251004	      0.73249264	     57.91518078	     57.91518078	    -79.26060437	    -79.26060437	      4.20815885	      4.20815885	    -31.17033233
      8.42000000	     15.38475455	     -0.04255948	      0.73249206	     57.96834213	     57.96834213	    -79.24069627	    -79.24069627	      4.21392325	      4.21392325	    -31.31177276
      8.43000000	     15.32209068	     -0.04259507	      0.73248966	     58.02479154	     58.02479154	    -79.22109632	    -79.22109632	      4.22044228	      4.22044228	    -31.46495450
      8.44000000	     15.25553115	     -0.04263737	      0.73248166	     58.08845294	     58.08845294	    -79.20040688	    -79.20040688	      4.22820247	      4.22820247	    -31.63714947
      8.45000000	     15.18446043	     -0.04261657	      0.73248321	     58.14750433	     58.14750433	    -79.18319473	    -79.18319473	      4.23606886	      4.23606886	    -31.80652128
      8.46000000	     15.10906632	     -0.04259664	      0.73248115	     58.21383354	     58.21383354	    -79.16488044	    -79.16488044	      4.24517171	      4.24517171	    -31.99476204
      8.47000000	     15.02900988	     -0.04255676	      0.73248155	     58.28373914	     58.28373914	    -79.14678425	    -79.14678425	      4.25498485	      4.25498485	    -32.19433935
      8.48000000	     14.94380510	     -0.04249603	      0.73248487	     58.35756405	     58.35756405	    -79.12856824	    -79.12856824	      4.26532665	      4.26532665	    -32.40510786
      8.49000000	     14.85287590	     -0.04241515	      0.73249123	     58.43578921	     58.43578921	    -79.10981308	    -79.10981308	      4.27599794	      4.27599794	    -32.62691269
      8.50000000	     14.75550939	     -0.04231456	      0.73250054	     58.51898356	     58.51898356	    -79.09010084	    -79.09010084	      4.28683036	      4.28683036	    -32.85954614
      8.51000000	     14.65090708	     -0.04219330	      0.73251272	     58.60771217	     58.60771217	    -79.06909854	    -79.06909854	      4.29773326	      4.29773326	    -33.10263774
